<?xml version="1.0" standalone="no"?>
<!DOCTYPE svg PUBLIC "-//W3C//DTD SVG 20010904//EN"
 "http://www.w3.org/TR/2001/REC-SVG-20010904/DTD/svg10.dtd">
<svg version="1.0" xmlns="http://www.w3.org/2000/svg"
 width="260.000000pt" height="260.000000pt" viewBox="0 0 260.000000 260.000000"
 preserveAspectRatio="xMidYMid meet">
<metadata>
Created by potrace 1.11, written by Peter Selinger 2001-2013
</metadata>
<g transform="translate(0.000000,260.000000) scale(0.100000,-0.100000)"
fill="#000000" stroke="none">
<path d="M1090 2451 c-47 -10 -116 -31 -155 -47 l-70 -28 35 -6 c117 -20 187
-122 161 -233 -11 -45 -10 -57 5 -92 25 -59 31 -251 10 -333 -37 -146 -124
-270 -223 -319 -85 -41 -190 -39 -328 6 -116 39 -157 66 -186 123 -21 42 -22
89 -3 173 4 21 3 27 -4 20 -6 -5 -18 -55 -28 -109 -38 -226 4 -492 108 -685
49 -90 181 -272 148 -202 -36 74 2 180 90 248 108 83 154 129 205 208 56 85
194 231 254 270 20 12 68 33 106 45 39 13 90 32 115 44 67 31 138 28 192 -10
96 -66 112 -180 57 -396 -33 -125 -131 -366 -191 -465 -18 -30 -47 -68 -65
-83 -17 -16 -43 -46 -57 -68 -39 -62 -87 -94 -154 -101 l-57 -7 84 -13 c121
-20 291 -10 405 24 158 47 297 128 415 241 l66 64 -49 -25 c-56 -29 -101 -32
-154 -10 -105 45 -153 168 -99 257 43 71 92 150 125 200 20 31 32 63 32 84 0
45 41 156 75 200 79 103 207 108 293 10 l32 -37 0 64 c0 84 -23 214 -55 306
-28 83 -85 203 -115 241 l-19 25 6 -38 c12 -80 -53 -173 -156 -221 -38 -17
-65 -21 -151 -21 -93 0 -113 4 -173 29 -114 48 -157 118 -157 252 1 116 36
170 145 221 52 24 73 28 152 28 90 0 92 1 70 17 -48 38 -198 108 -283 133
-122 37 -328 44 -454 16z"/>
<path d="M1961 2178 c6 -15 18 -30 27 -33 26 -10 23 0 -9 31 l-31 29 13 -27z"/>
<path d="M2141 910 c-18 -33 -30 -60 -28 -60 7 0 69 111 65 116 -2 2 -19 -24
-37 -56z"/>
<path d="M2060 780 c-12 -16 -19 -30 -16 -30 2 0 14 14 26 30 12 17 19 30 16
30 -2 0 -14 -13 -26 -30z"/>
<path d="M670 606 c0 -2 8 -10 18 -17 15 -13 16 -12 3 4 -13 16 -21 21 -21 13z"/>
<path d="M765 535 c30 -25 59 -39 51 -26 -4 6 -22 18 -39 27 -30 14 -31 14
-12 -1z"/>
<path d="M966 435 c17 -8 44 -17 60 -20 20 -4 15 1 -16 14 -25 11 -52 20 -60
20 -8 -1 -1 -7 16 -14z"/>
</g>
</svg>
